# xmcd
#
# Track frame offsets: 
#        150
#        16279
#        37124
#        54199
#        60348
#        82932
#        111412
#        135778
#
# Disc length: 2296 seconds
#
# Revision: 3
# Processed by: cddbd v1.5.2PL0 Copyright (c) Steve Scherf et al.
# Submitted via: ExactAudioCopyFreeDBPlugin 1.0
#
DISCID=5708f608
DTITLE=The Brew - The Joker
DYEAR=2008
DGENRE=Blues - Rock - Progressive
TTITLE0=Postcode Hero
TTITLE1=Lies
TTITLE2=The Joker
TTITLE3=Dil Chahta Hai
TTITLE4=Hearts Desires
TTITLE5=Burt's Boogie
TTITLE6=Break Free
TTITLE7=24 Hours (From Yesterday)
EXTD=
EXTT0=
EXTT1=
EXTT2=
EXTT3=
EXTT4=
EXTT5=
EXTT6=
EXTT7=
PLAYORDER=
